<svg width="131" height="113" viewBox="0 0 131 113" fill="none" xmlns="http://www.w3.org/2000/svg">
<path d="M3.68457 4.21753H126.685V35.405H3.68457V4.21753Z" stroke="white" stroke-width="7"/>
<path d="M3.68457 47.28H126.685V78.4675H3.68457V47.28Z" stroke="white" stroke-width="7"/>
<rect x="10.7471" y="11.28" width="8.9375" height="17.0625" fill="white"/>
<rect x="24.5596" y="11.28" width="8.9375" height="17.0625" fill="white"/>
<rect x="10.7471" y="54.3425" width="8.9375" height="17.0625" fill="white"/>
<rect x="38.3721" y="11.28" width="8.9375" height="17.0625" fill="white"/>
<rect x="110.685" y="11.28" width="8.9375" height="8.9375" fill="white"/>
<rect x="111.497" y="54.3425" width="8.9375" height="8.9375" fill="white"/>
<rect x="24.5596" y="54.3425" width="8.9375" height="17.0625" fill="white"/>
<rect x="13.9971" y="98.2175" width="40.625" height="6.5" fill="white"/>
<rect x="61.1221" y="94.9675" width="18.6875" height="7.3125" transform="rotate(-90 61.1221 94.9675)" fill="white"/>
<rect x="74.9346" y="98.2175" width="40.625" height="6.5" fill="white"/>
<circle cx="64.7783" cy="101.061" r="7.46875" stroke="white" stroke-width="7"/>
</svg>
