<svg width="59" height="60" viewBox="0 0 59 60" fill="none" xmlns="http://www.w3.org/2000/svg">
<path d="M8.28709 16.8626C3.76797 16.8626 0.104492 13.1742 0.104492 8.6243C0.104492 4.07444 3.76797 0.386047 8.28709 0.386047C12.8063 0.386047 16.4697 4.07444 16.4697 8.6243C16.4697 13.1742 12.8063 16.8626 8.28709 16.8626Z" fill="white"/>
<path d="M8.28709 38.1321C3.76797 38.1321 0.104492 34.4439 0.104492 29.8939C0.104492 25.344 3.76797 21.6556 8.28709 21.6556C12.8063 21.6556 16.4697 25.344 16.4697 29.8939C16.4697 34.4439 12.8063 38.1321 8.28709 38.1321Z" fill="white"/>
<path d="M8.28709 59.4018C3.76797 59.4018 0.104492 55.7135 0.104492 51.1635C0.104492 46.6136 3.76797 42.9253 8.28709 42.9253C12.8063 42.9253 16.4697 46.6136 16.4697 51.1635C16.4697 55.7135 12.8063 59.4018 8.28709 59.4018Z" fill="white"/>
<path d="M29.414 16.8626C24.8949 16.8626 21.2314 13.1742 21.2314 8.6243C21.2314 4.07444 24.8949 0.386047 29.414 0.386047C33.9333 0.386047 37.5966 4.07444 37.5966 8.6243C37.5966 13.1742 33.9333 16.8626 29.414 16.8626Z" fill="white"/>
<path d="M29.414 38.1321C24.8949 38.1321 21.2314 34.4439 21.2314 29.8939C21.2314 25.344 24.8949 21.6556 29.414 21.6556C33.9333 21.6556 37.5966 25.344 37.5966 29.8939C37.5966 34.4439 33.9333 38.1321 29.414 38.1321Z" fill="white"/>
<path d="M29.414 59.4018C24.8949 59.4018 21.2314 55.7135 21.2314 51.1635C21.2314 46.6136 24.8949 42.9253 29.414 42.9253C33.9333 42.9253 37.5966 46.6136 37.5966 51.1635C37.5966 55.7135 33.9333 59.4018 29.414 59.4018Z" fill="white"/>
<path d="M50.539 16.8626C46.0199 16.8626 42.3564 13.1742 42.3564 8.6243C42.3564 4.07444 46.0199 0.386047 50.539 0.386047C55.0583 0.386047 58.7216 4.07444 58.7216 8.6243C58.7216 13.1742 55.0583 16.8626 50.539 16.8626Z" fill="white"/>
<path d="M50.539 38.1321C46.0199 38.1321 42.3564 34.4439 42.3564 29.8939C42.3564 25.344 46.0199 21.6556 50.539 21.6556C55.0583 21.6556 58.7216 25.344 58.7216 29.8939C58.7216 34.4439 55.0583 38.1321 50.539 38.1321Z" fill="white"/>
<path d="M50.539 59.4018C46.0199 59.4018 42.3564 55.7135 42.3564 51.1635C42.3564 46.6136 46.0199 42.9253 50.539 42.9253C55.0583 42.9253 58.7216 46.6136 58.7216 51.1635C58.7216 55.7135 55.0583 59.4018 50.539 59.4018Z" fill="white"/>
</svg>
