<svg width="63" height="73" viewBox="0 0 63 73" fill="none" xmlns="http://www.w3.org/2000/svg">
<path d="M0.0292969 45.5887V59.0684C0.0292969 66.5133 14.0161 72.5482 31.2696 72.5482C48.5232 72.5482 62.5099 66.5133 62.5099 59.0684V45.5887C62.5099 53.0336 48.5232 59.0684 31.2696 59.0684C14.0161 59.0684 0.0292969 53.0336 0.0292969 45.5887Z" fill="white"/>
<path d="M0.0292969 23.1223V36.6021C0.0292969 44.0469 14.0161 50.0818 31.2696 50.0818C48.5232 50.0818 62.5099 44.0469 62.5099 36.6021V23.1223C62.5099 30.567 48.5232 36.6021 31.2696 36.6021C14.0161 36.6021 0.0292969 30.567 0.0292969 23.1223Z" fill="white"/>
<path d="M62.5099 14.1358C62.5099 21.5805 48.5232 27.6156 31.2696 27.6156C14.0161 27.6156 0.0292969 21.5805 0.0292969 14.1358C0.0292969 6.69118 14.0161 0.656067 31.2696 0.656067C48.5232 0.656067 62.5099 6.69118 62.5099 14.1358Z" fill="white"/>
</svg>
