<svg width="61" height="62" viewBox="0 0 61 62" fill="none" xmlns="http://www.w3.org/2000/svg">
<line x1="36.6123" y1="1.38605" x2="36.6123" y2="60.4019" stroke="white" stroke-width="3"/>
<line x1="2.50781" y1="7.8241" x2="2.50781" y2="55.0368" stroke="white" stroke-width="3"/>
<line x1="58.9932" y1="4.60504" x2="58.9932" y2="58.2558" stroke="white" stroke-width="3"/>
<line x1="19.5596" y1="9.97009" x2="19.5596" y2="51.8177" stroke="white" stroke-width="3"/>
<path d="M58.3068 7.57388L59.7848 7.83009L60.2905 4.87302L58.8125 4.61681L58.3068 7.57388ZM36.1378 3.73073L58.3068 7.57388L58.8125 4.61681L36.6435 0.773664L36.1378 3.73073Z" fill="white"/>
<path d="M18.5035 12.6585L19.9833 12.904L20.4679 9.94342L18.9882 9.69787L18.5035 12.6585ZM1.91197 9.90528L18.5035 12.6585L18.9882 9.69787L2.39663 6.94469L1.91197 9.90528Z" fill="white"/>
<path d="M35.6683 4.009L37.1452 3.74701L36.628 0.791917L35.1511 1.05391L35.6683 4.009ZM1.41287 10.0856L35.6683 4.009L35.1511 1.05391L0.895721 7.13055L1.41287 10.0856Z" fill="white"/>
<path d="M57.8553 8.17609L59.3445 7.99647L58.99 5.01748L57.5008 5.1971L57.8553 8.17609ZM19.0962 12.8511L57.8553 8.17609L57.5008 5.1971L18.7417 9.87208L19.0962 12.8511Z" fill="white"/>
<path d="M34.9541 60.7852L36.4305 61.0502L36.9536 58.0961L35.4772 57.8311L34.9541 60.7852ZM1.18672 54.7248L34.9541 60.7852L35.4772 57.8311L1.70976 51.7708L1.18672 54.7248Z" fill="white"/>
<path d="M58.3664 57.396L59.8537 57.5909L60.2382 54.6156L58.7509 54.4208L58.3664 57.396ZM18.8732 52.2226L58.3664 57.396L58.7509 54.4208L19.2577 49.2473L18.8732 52.2226Z" fill="white"/>
<path d="M58.7734 57.8366L60.2578 57.6203L59.8309 54.6508L58.3465 54.8671L58.7734 57.8366ZM36.4576 61.0885L58.7734 57.8366L58.3465 54.8671L36.0307 58.119L36.4576 61.0885Z" fill="white"/>
<path d="M19.1218 52.3983L20.6076 52.1928L20.2019 49.2203L18.7161 49.4259L19.1218 52.3983ZM2.23799 54.734L19.1218 52.3983L18.7161 49.4259L1.83232 51.7616L2.23799 54.734Z" fill="white"/>
<line y1="-1.5" x2="20.5466" y2="-1.5" transform="matrix(-0.00714546 0.999974 -0.999974 -0.00724298 47.915 28.5466)" stroke="white" stroke-width="3"/>
</svg>
