<svg width="65" height="59" viewBox="0 0 65 59" fill="none" xmlns="http://www.w3.org/2000/svg">
<line x1="0.632812" y1="10.0432" x2="15.5535" y2="10.0432" stroke="white" stroke-width="4"/>
<line x1="0.632812" y1="48.6718" x2="15.5535" y2="48.6718" stroke="white" stroke-width="4"/>
<line y1="-2" x2="13.855" y2="-2" transform="matrix(-1 0 0 1 64.5791 31.3575)" stroke="white" stroke-width="4"/>
<line x1="35.8027" y1="10.0432" x2="64.5784" y2="10.0432" stroke="white" stroke-width="4"/>
<line x1="35.8027" y1="48.6718" x2="64.5784" y2="48.6718" stroke="white" stroke-width="4"/>
<line y1="-2" x2="30.9072" y2="-2" transform="matrix(-1 0 0 1 31.54 31.3575)" stroke="white" stroke-width="4"/>
<path d="M30.6067 9.89719C30.6067 14.1389 27.1949 17.5543 23.0148 17.5543C18.8346 17.5543 15.4229 14.1389 15.4229 9.89719C15.4229 5.65547 18.8346 2.24005 23.0148 2.24005C27.1949 2.24005 30.6067 5.65547 30.6067 9.89719Z" stroke="white" stroke-width="4"/>
<path d="M30.6067 48.5257C30.6067 52.7675 27.1949 56.1829 23.0148 56.1829C18.8346 56.1829 15.4229 52.7675 15.4229 48.5257C15.4229 44.284 18.8346 40.8686 23.0148 40.8686C27.1949 40.8686 30.6067 44.284 30.6067 48.5257Z" stroke="white" stroke-width="4"/>
<path d="M35.6717 29.2115C35.6717 33.4532 39.0834 36.8686 43.2636 36.8686C47.4437 36.8686 50.8555 33.4532 50.8555 29.2115C50.8555 24.9697 47.4437 21.5543 43.2636 21.5543C39.0834 21.5543 35.6717 24.9697 35.6717 29.2115Z" stroke="white" stroke-width="4"/>
</svg>
