<svg width="71" height="71" viewBox="0 0 71 71" fill="none" xmlns="http://www.w3.org/2000/svg">
<path d="M30.7946 13.4206C32.0243 8.31755 39.2346 8.31755 40.4642 13.4206C40.6487 14.1873 41.0104 14.8992 41.5198 15.4985C42.0293 16.0978 42.6721 16.5675 43.3959 16.8694C44.1197 17.1713 44.9041 17.2969 45.6852 17.2359C46.4663 17.175 47.2221 16.9292 47.8911 16.5185C52.3449 13.7868 57.4452 18.9189 54.732 23.4059C54.3247 24.0791 54.0809 24.8396 54.0205 25.6255C53.9601 26.4114 54.0847 27.2006 54.3842 27.9289C54.6838 28.6572 55.1498 29.3041 55.7443 29.8169C56.3389 30.3298 57.0453 30.6941 57.806 30.8804C62.8747 32.1184 62.8747 39.3778 57.806 40.6158C57.0446 40.8015 56.3375 41.1656 55.7422 41.6785C55.147 42.1914 54.6804 42.8386 54.3806 43.5673C54.0807 44.2961 53.9559 45.0858 54.0165 45.8722C54.0771 46.6587 54.3212 47.4196 54.7291 48.0931C57.4424 52.5772 52.3449 57.7122 47.8882 54.9805C47.2195 54.5705 46.4642 54.3251 45.6836 54.2642C44.903 54.2034 44.1192 54.3289 43.3958 54.6304C42.6724 54.932 42.0299 55.4012 41.5205 55.9998C41.0111 56.5984 40.6492 57.3096 40.4642 58.0755C39.2346 63.1786 32.0243 63.1786 30.7946 58.0755C30.6101 57.3089 30.2484 56.5969 29.739 55.9977C29.2296 55.3984 28.5868 54.9286 27.863 54.6267C27.1392 54.3248 26.3548 54.1992 25.5737 54.2602C24.7925 54.3212 24.0367 54.567 23.3678 54.9776C18.914 57.7093 13.8136 52.5772 16.5269 48.0902C16.9342 47.417 17.1779 46.6565 17.2384 45.8706C17.2988 45.0847 17.1742 44.2955 16.8746 43.5672C16.5751 42.8389 16.1091 42.1921 15.5145 41.6792C14.92 41.1664 14.2136 40.802 13.4528 40.6158C8.38421 39.3778 8.38421 32.1184 13.4528 30.8804C14.2143 30.6946 14.9214 30.3305 15.5166 29.8176C16.1119 29.3047 16.5784 28.6575 16.8783 27.9288C17.1782 27.2001 17.3029 26.4103 17.2424 25.6239C17.1818 24.8375 16.9376 24.0765 16.5298 23.403C13.8165 18.9189 18.914 13.7839 23.3707 16.5156C26.2571 18.2825 29.998 16.719 30.7946 13.4206Z" stroke="white" stroke-width="4" stroke-linecap="round" stroke-linejoin="round"/>
<path d="M35.6301 44.4663C40.4125 44.4663 44.2894 40.5631 44.2894 35.7481C44.2894 30.9331 40.4125 27.0298 35.6301 27.0298C30.8476 27.0298 26.9707 30.9331 26.9707 35.7481C26.9707 40.5631 30.8476 44.4663 35.6301 44.4663Z" stroke="white" stroke-width="4" stroke-linecap="round" stroke-linejoin="round"/>
</svg>
